<svg preserveAspectRatio="none" width="100%" height="100%" overflow="visible" style="display: block;" viewBox="0 0 14 14" fill="none" xmlns="http://www.w3.org/2000/svg">
<g id="Icon">
<path id="Vector" d="M3.5 12.8333C3.19058 12.8333 2.89383 12.7104 2.67504 12.4916C2.45625 12.2728 2.33333 11.9761 2.33333 11.6667V2.33333C2.33333 2.02391 2.45625 1.72717 2.67504 1.50838C2.89383 1.28958 3.19058 1.16667 3.5 1.16667H8.16667C8.35132 1.16637 8.53422 1.2026 8.70481 1.27328C8.8754 1.34396 9.03033 1.44769 9.16067 1.5785L11.2537 3.6715C11.3848 3.80188 11.4889 3.95695 11.5597 4.12776C11.6306 4.29857 11.667 4.48173 11.6667 4.66667V11.6667C11.6667 11.9761 11.5438 12.2728 11.325 12.4916C11.1062 12.7104 10.8094 12.8333 10.5 12.8333H3.5Z" stroke="var(--stroke-0, #62748E)" stroke-width="1.16667" stroke-linecap="round" stroke-linejoin="round"/>
<path id="Vector_2" d="M8.16667 1.16667V4.08333C8.16667 4.23804 8.22813 4.38642 8.33752 4.49581C8.44692 4.60521 8.59529 4.66667 8.75 4.66667H11.6667" stroke="var(--stroke-0, #62748E)" stroke-width="1.16667" stroke-linecap="round" stroke-linejoin="round"/>
<path id="Vector_3" d="M5.83333 5.25H4.66667" stroke="var(--stroke-0, #62748E)" stroke-width="1.16667" stroke-linecap="round" stroke-linejoin="round"/>
<path id="Vector_4" d="M9.33333 7.58333H4.66667" stroke="var(--stroke-0, #62748E)" stroke-width="1.16667" stroke-linecap="round" stroke-linejoin="round"/>
<path id="Vector_5" d="M9.33333 9.91667H4.66667" stroke="var(--stroke-0, #62748E)" stroke-width="1.16667" stroke-linecap="round" stroke-linejoin="round"/>
</g>
</svg>
