<svg preserveAspectRatio="none" width="100%" height="100%" overflow="visible" style="display: block;" viewBox="0 0 14 14" fill="none" xmlns="http://www.w3.org/2000/svg">
<g id="Icon">
<g id="Vector">
<path d="M2.33333 12.8333V2.33333C2.33333 2.24277 2.35442 2.15346 2.39492 2.07246C2.43542 1.99146 2.49422 1.921 2.56667 1.86667C3.1725 1.41229 3.90937 1.16667 4.66667 1.16667C6.41667 1.16667 7.58333 2.33333 8.94425 2.33333C9.72203 2.33333 10.3184 2.17778 10.7333 1.86667C10.82 1.80167 10.9231 1.76209 11.0309 1.75236C11.1388 1.74263 11.2473 1.76314 11.3442 1.81158C11.4411 1.86003 11.5226 1.9345 11.5795 2.02666C11.6365 2.11881 11.6667 2.225 11.6667 2.33333V8.16667C11.6667 8.25723 11.6456 8.34654 11.6051 8.42754C11.5646 8.50854 11.5058 8.579 11.4333 8.63333C10.8275 9.08771 10.0906 9.33333 9.33333 9.33333C7.58333 9.33333 6.41667 8.16667 4.66667 8.16667C3.80573 8.16669 2.97501 8.48402 2.33333 9.058" fill="var(--fill-0, #E17100)"/>
<path d="M2.33333 12.8333V2.33333C2.33333 2.24277 2.35442 2.15346 2.39492 2.07246C2.43542 1.99146 2.49422 1.921 2.56667 1.86667C3.1725 1.41229 3.90937 1.16667 4.66667 1.16667C6.41667 1.16667 7.58333 2.33333 8.94425 2.33333C9.72203 2.33333 10.3184 2.17778 10.7333 1.86667C10.82 1.80167 10.9231 1.76209 11.0309 1.75236C11.1388 1.74263 11.2473 1.76314 11.3442 1.81158C11.4411 1.86003 11.5226 1.9345 11.5795 2.02666C11.6365 2.11881 11.6667 2.225 11.6667 2.33333V8.16667C11.6667 8.25723 11.6456 8.34654 11.6051 8.42754C11.5646 8.50854 11.5058 8.579 11.4333 8.63333C10.8275 9.08771 10.0906 9.33333 9.33333 9.33333C7.58333 9.33333 6.41667 8.16667 4.66667 8.16667C3.80573 8.16669 2.97501 8.48402 2.33333 9.058" stroke="var(--stroke-0, #E17100)" stroke-width="1.16667" stroke-linecap="round" stroke-linejoin="round"/>
</g>
</g>
</svg>
