<svg preserveAspectRatio="none" width="100%" height="100%" overflow="visible" style="display: block;" viewBox="0 0 12 12" fill="none" xmlns="http://www.w3.org/2000/svg">
<g id="Icon" clip-path="url(#clip0_52_9)">
<path id="Vector" d="M6.415 1.09C6.28472 1.03058 6.14319 0.999825 6 0.999825C5.8568 0.999825 5.71528 1.03058 5.585 1.09L1.3 3.04C1.21127 3.07913 1.13584 3.1432 1.08288 3.22443C1.02992 3.30566 1.00172 3.40054 1.00172 3.4975C1.00172 3.59447 1.02992 3.68935 1.08288 3.77058C1.13584 3.8518 1.21127 3.91588 1.3 3.955L5.59 5.91C5.72028 5.96943 5.8618 6.00018 6.005 6.00018C6.14819 6.00018 6.28972 5.96943 6.42 5.91L10.71 3.96C10.7987 3.92088 10.8742 3.8568 10.9271 3.77557C10.9801 3.69435 11.0083 3.59947 11.0083 3.5025C11.0083 3.40554 10.9801 3.31066 10.9271 3.22943C10.8742 3.1482 10.7987 3.08413 10.71 3.045L6.415 1.09Z" stroke="var(--stroke-0, #90A1B9)" stroke-linecap="round" stroke-linejoin="round"/>
<path id="Vector_2" d="M1 6C0.999765 6.09563 1.02696 6.18933 1.07836 6.26997C1.12976 6.35062 1.20321 6.41483 1.29 6.455L5.59 8.41C5.7196 8.46869 5.86023 8.49904 6.0025 8.49904C6.14477 8.49904 6.2854 8.46869 6.415 8.41L10.705 6.46C10.7935 6.42022 10.8685 6.35555 10.9209 6.27387C10.9733 6.19219 11.0008 6.09703 11 6" stroke="var(--stroke-0, #90A1B9)" stroke-linecap="round" stroke-linejoin="round"/>
<path id="Vector_3" d="M1 8.5C0.999765 8.59563 1.02696 8.68933 1.07836 8.76997C1.12976 8.85062 1.20321 8.91483 1.29 8.955L5.59 10.91C5.7196 10.9687 5.86023 10.999 6.0025 10.999C6.14477 10.999 6.2854 10.9687 6.415 10.91L10.705 8.96C10.7935 8.92022 10.8685 8.85555 10.9209 8.77387C10.9733 8.69219 11.0008 8.59703 11 8.5" stroke="var(--stroke-0, #90A1B9)" stroke-linecap="round" stroke-linejoin="round"/>
</g>
<defs>
<clipPath id="clip0_52_9">
<rect width="12" height="12" fill="white"/>
</clipPath>
</defs>
</svg>
