<svg preserveAspectRatio="none" width="100%" height="100%" overflow="visible" style="display: block;" viewBox="0 0 12 12" fill="none" xmlns="http://www.w3.org/2000/svg">
<g id="Icon" clip-path="url(#clip0_52_38)">
<path id="Vector" d="M10.9005 5C11.1289 6.12065 10.9661 7.28571 10.4394 8.3009C9.91274 9.31608 9.05395 10.12 8.00626 10.5787C6.95857 11.0373 5.78532 11.1229 4.68215 10.8212C3.57899 10.5195 2.6126 9.8487 1.94414 8.92071C1.27568 7.99272 0.945565 6.86362 1.00884 5.72169C1.07211 4.57977 1.52494 3.49405 2.29183 2.64559C3.05872 1.79713 4.09329 1.23722 5.22304 1.05923C6.35278 0.881239 7.5094 1.09593 8.5 1.6675" stroke="var(--stroke-0, #007A55)" stroke-linecap="round" stroke-linejoin="round"/>
<path id="Vector_2" d="M4.5 5.5L6 7L11 2" stroke="var(--stroke-0, #007A55)" stroke-linecap="round" stroke-linejoin="round"/>
</g>
<defs>
<clipPath id="clip0_52_38">
<rect width="12" height="12" fill="white"/>
</clipPath>
</defs>
</svg>
