<svg preserveAspectRatio="none" width="100%" height="100%" overflow="visible" style="display: block;" viewBox="0 0 20 20" fill="none" xmlns="http://www.w3.org/2000/svg">
<g id="Icon">
<path id="Vector" d="M5 18.3333C4.55797 18.3333 4.13405 18.1577 3.82149 17.8452C3.50893 17.5326 3.33333 17.1087 3.33333 16.6667V3.33334C3.33333 2.89131 3.50893 2.46739 3.82149 2.15482C4.13405 1.84226 4.55797 1.66667 5 1.66667H11.6667C11.9305 1.66624 12.1917 1.718 12.4354 1.81898C12.6791 1.91995 12.9005 2.06814 13.0867 2.255L16.0767 5.245C16.264 5.43126 16.4126 5.65279 16.5139 5.8968C16.6152 6.14082 16.6671 6.40248 16.6667 6.66667V16.6667C16.6667 17.1087 16.4911 17.5326 16.1785 17.8452C15.866 18.1577 15.442 18.3333 15 18.3333H5Z" stroke="var(--stroke-0, #4F39F6)" stroke-width="1.66667" stroke-linecap="round" stroke-linejoin="round"/>
<path id="Vector_2" d="M11.6667 1.66667V5.83333C11.6667 6.05435 11.7545 6.26631 11.9107 6.42259C12.067 6.57887 12.279 6.66667 12.5 6.66667H16.6667" stroke="var(--stroke-0, #4F39F6)" stroke-width="1.66667" stroke-linecap="round" stroke-linejoin="round"/>
<path id="Vector_3" d="M8.33333 7.5H6.66667" stroke="var(--stroke-0, #4F39F6)" stroke-width="1.66667" stroke-linecap="round" stroke-linejoin="round"/>
<path id="Vector_4" d="M13.3333 10.8333H6.66667" stroke="var(--stroke-0, #4F39F6)" stroke-width="1.66667" stroke-linecap="round" stroke-linejoin="round"/>
<path id="Vector_5" d="M13.3333 14.1667H6.66667" stroke="var(--stroke-0, #4F39F6)" stroke-width="1.66667" stroke-linecap="round" stroke-linejoin="round"/>
</g>
</svg>
