<svg preserveAspectRatio="none" width="100%" height="100%" overflow="visible" style="display: block;" viewBox="0 0 22 16" fill="none" xmlns="http://www.w3.org/2000/svg">
<path id="Vector" d="M2.99741 12.8963C2.25445 12.1373 1.69398 11.219 1.35844 10.2113C1.02291 9.2035 0.921116 8.13258 1.06077 7.07964C1.20042 6.02669 1.57787 5.01934 2.1645 4.13387C2.75114 3.2484 3.53159 2.50805 4.44674 1.96889C5.36189 1.42972 6.38774 1.10589 7.44658 1.02191C8.50542 0.937937 9.56948 1.09602 10.5582 1.48419C11.5469 1.87237 12.4343 2.48045 13.1531 3.26237C13.872 4.0443 14.4035 4.97957 14.7074 5.99733H16.4974C17.4629 5.99722 18.4029 6.30766 19.1784 6.88277C19.9539 7.45789 20.5239 8.2672 20.8042 9.19114C21.0844 10.1151 21.0601 11.1047 20.7347 12.0137C20.4094 12.9228 19.8003 13.703 18.9974 14.2393" stroke="var(--stroke-0, #62748E)" stroke-width="2" stroke-linecap="round" stroke-linejoin="round"/>
</svg>
