<svg preserveAspectRatio="none" width="100%" height="100%" overflow="visible" style="display: block;" viewBox="0 0 16 16" fill="none" xmlns="http://www.w3.org/2000/svg">
<g id="Icon">
<path id="Vector" d="M4 14.6667C3.64638 14.6667 3.30724 14.5262 3.05719 14.2761C2.80714 14.0261 2.66667 13.687 2.66667 13.3333V2.66667C2.66667 2.31304 2.80714 1.97391 3.05719 1.72386C3.30724 1.47381 3.64638 1.33333 4 1.33333H9.33333C9.54437 1.33299 9.75339 1.3744 9.94835 1.45518C10.1433 1.53596 10.3204 1.65451 10.4693 1.804L12.8613 4.196C13.0112 4.345 13.1301 4.52223 13.2111 4.71744C13.2921 4.91265 13.3337 5.12198 13.3333 5.33333V13.3333C13.3333 13.687 13.1929 14.0261 12.9428 14.2761C12.6928 14.5262 12.3536 14.6667 12 14.6667H4Z" stroke="var(--stroke-0, #0A0A0A)" stroke-width="1.33333" stroke-linecap="round" stroke-linejoin="round"/>
<path id="Vector_2" d="M9.33333 1.33333V4.66667C9.33333 4.84348 9.40357 5.01305 9.5286 5.13807C9.65362 5.2631 9.82319 5.33333 10 5.33333H13.3333" stroke="var(--stroke-0, #0A0A0A)" stroke-width="1.33333" stroke-linecap="round" stroke-linejoin="round"/>
<path id="Vector_3" d="M6.66667 6H5.33333" stroke="var(--stroke-0, #0A0A0A)" stroke-width="1.33333" stroke-linecap="round" stroke-linejoin="round"/>
<path id="Vector_4" d="M10.6667 8.66667H5.33333" stroke="var(--stroke-0, #0A0A0A)" stroke-width="1.33333" stroke-linecap="round" stroke-linejoin="round"/>
<path id="Vector_5" d="M10.6667 11.3333H5.33333" stroke="var(--stroke-0, #0A0A0A)" stroke-width="1.33333" stroke-linecap="round" stroke-linejoin="round"/>
</g>
</svg>
