<svg preserveAspectRatio="none" width="100%" height="100%" overflow="visible" style="display: block;" viewBox="0 0 16 16" fill="none" xmlns="http://www.w3.org/2000/svg">
<g id="Icon" clip-path="url(#clip0_96_62)">
<path id="Vector" d="M7.34464 1.876C7.3732 1.72307 7.45435 1.58494 7.57403 1.48555C7.69372 1.38615 7.84439 1.33174 7.99997 1.33174C8.15554 1.33174 8.30622 1.38615 8.4259 1.48555C8.54559 1.58494 8.62674 1.72307 8.6553 1.876L9.35597 5.58133C9.40573 5.84477 9.53375 6.08708 9.72332 6.27665C9.91289 6.46622 10.1552 6.59424 10.4186 6.644L14.124 7.34467C14.2769 7.37323 14.415 7.45438 14.5144 7.57407C14.6138 7.69375 14.6682 7.84442 14.6682 8C14.6682 8.15558 14.6138 8.30625 14.5144 8.42594C14.415 8.54562 14.2769 8.62677 14.124 8.65533L10.4186 9.356C10.1552 9.40576 9.91289 9.53378 9.72332 9.72335C9.53375 9.91292 9.40573 10.1552 9.35597 10.4187L8.6553 14.124C8.62674 14.2769 8.54559 14.4151 8.4259 14.5145C8.30622 14.6139 8.15554 14.6683 7.99997 14.6683C7.84439 14.6683 7.69372 14.6139 7.57403 14.5145C7.45435 14.4151 7.3732 14.2769 7.34464 14.124L6.64397 10.4187C6.59421 10.1552 6.46618 9.91292 6.27662 9.72335C6.08705 9.53378 5.84473 9.40576 5.5813 9.356L1.87597 8.65533C1.72304 8.62677 1.58491 8.54562 1.48551 8.42594C1.38612 8.30625 1.33171 8.15558 1.33171 8C1.33171 7.84442 1.38612 7.69375 1.48551 7.57407C1.58491 7.45438 1.72304 7.37323 1.87597 7.34467L5.5813 6.644C5.84473 6.59424 6.08705 6.46622 6.27662 6.27665C6.46618 6.08708 6.59421 5.84477 6.64397 5.58133L7.34464 1.876Z" stroke="var(--stroke-0, #0A0A0A)" stroke-width="1.33333" stroke-linecap="round" stroke-linejoin="round"/>
<path id="Vector_2" d="M13.3333 1.33333V4" stroke="var(--stroke-0, #0A0A0A)" stroke-width="1.33333" stroke-linecap="round" stroke-linejoin="round"/>
<path id="Vector_3" d="M14.6667 2.66667H12" stroke="var(--stroke-0, #0A0A0A)" stroke-width="1.33333" stroke-linecap="round" stroke-linejoin="round"/>
<path id="Vector_4" d="M2.66667 14.6667C3.40305 14.6667 4 14.0697 4 13.3333C4 12.597 3.40305 12 2.66667 12C1.93029 12 1.33333 12.597 1.33333 13.3333C1.33333 14.0697 1.93029 14.6667 2.66667 14.6667Z" stroke="var(--stroke-0, #0A0A0A)" stroke-width="1.33333" stroke-linecap="round" stroke-linejoin="round"/>
</g>
<defs>
<clipPath id="clip0_96_62">
<rect width="16" height="16" fill="white"/>
</clipPath>
</defs>
</svg>
