<svg width="16" height="16" viewBox="0 0 16 16" fill="none" xmlns="http://www.w3.org/2000/svg">
<path d="M6.66665 13.3333C6.66659 13.4572 6.70106 13.5787 6.76618 13.6841C6.8313 13.7895 6.9245 13.8746 7.03532 13.93L8.36865 14.5967C8.47031 14.6475 8.58328 14.6714 8.69681 14.6663C8.81035 14.6612 8.92068 14.6271 9.01734 14.5673C9.11399 14.5075 9.19376 14.424 9.24906 14.3247C9.30437 14.2254 9.33337 14.1137 9.33332 14V9.33333C9.33347 9.00292 9.45629 8.68433 9.67798 8.43933L14.4933 3.11333C14.5796 3.01771 14.6364 2.89912 14.6567 2.77192C14.6771 2.64472 14.6601 2.51435 14.6079 2.39658C14.5557 2.27881 14.4705 2.17868 14.3627 2.1083C14.2548 2.03792 14.1288 2.0003 14 2H1.99998C1.87105 2.00005 1.74491 2.03748 1.63682 2.10776C1.52873 2.17804 1.44334 2.27815 1.39099 2.39598C1.33864 2.5138 1.32157 2.64427 1.34187 2.77159C1.36216 2.89892 1.41893 3.01762 1.50532 3.11333L6.32198 8.43933C6.54367 8.68433 6.6665 9.00292 6.66665 9.33333V13.3333Z" stroke="#0A0A0A" stroke-width="1.33333" stroke-linecap="round" stroke-linejoin="round"/>
</svg>
