<svg width="16" height="16" viewBox="0 0 16 16" fill="none" xmlns="http://www.w3.org/2000/svg">
<g clip-path="url(#clip0_2_236)">
<path d="M8.55333 1.45333C8.37962 1.3741 8.19092 1.3331 8 1.3331C7.80907 1.3331 7.62037 1.3741 7.44666 1.45333L1.73333 4.05333C1.61503 4.1055 1.51445 4.19093 1.44384 4.29924C1.37323 4.40754 1.33563 4.53404 1.33563 4.66333C1.33563 4.79262 1.37323 4.91912 1.44384 5.02743C1.51445 5.13573 1.61503 5.22117 1.73333 5.27333L7.45333 7.88C7.62704 7.95923 7.81574 8.00024 8.00666 8.00024C8.19759 8.00024 8.38629 7.95923 8.56 7.88L14.28 5.28C14.3983 5.22784 14.4989 5.1424 14.5695 5.0341C14.6401 4.92579 14.6777 4.79929 14.6777 4.67C14.6777 4.54071 14.6401 4.41421 14.5695 4.3059C14.4989 4.1976 14.3983 4.11216 14.28 4.06L8.55333 1.45333Z" stroke="#0F172B" stroke-width="1.33333" stroke-linecap="round" stroke-linejoin="round"/>
<path d="M1.33335 8C1.33303 8.12751 1.36929 8.25244 1.43782 8.35997C1.50636 8.46749 1.60429 8.55311 1.72001 8.60667L7.45335 11.2133C7.62615 11.2916 7.81365 11.3321 8.00335 11.3321C8.19304 11.3321 8.38054 11.2916 8.55334 11.2133L14.2733 8.61333C14.3914 8.56029 14.4914 8.47406 14.5612 8.36516C14.6311 8.25625 14.6677 8.12937 14.6667 8" stroke="#0F172B" stroke-width="1.33333" stroke-linecap="round" stroke-linejoin="round"/>
<path d="M1.33335 11.3333C1.33303 11.4608 1.36929 11.5858 1.43782 11.6933C1.50636 11.8008 1.60429 11.8864 1.72001 11.94L7.45335 14.5467C7.62615 14.6249 7.81365 14.6654 8.00335 14.6654C8.19304 14.6654 8.38054 14.6249 8.55334 14.5467L14.2733 11.9467C14.3914 11.8936 14.4914 11.8074 14.5612 11.6985C14.6311 11.5896 14.6677 11.4627 14.6667 11.3333" stroke="#0F172B" stroke-width="1.33333" stroke-linecap="round" stroke-linejoin="round"/>
</g>
<defs>
<clipPath id="clip0_2_236">
<rect width="16" height="16" fill="white"/>
</clipPath>
</defs>
</svg>
