<svg width="16" height="16" viewBox="0 0 16 16" fill="none" xmlns="http://www.w3.org/2000/svg">
<path d="M6.44732 2.75733C6.48406 2.37089 6.66354 2.01203 6.95072 1.75085C7.2379 1.48968 7.61214 1.34495 8.00032 1.34495C8.3885 1.34495 8.76274 1.48968 9.04992 1.75085C9.3371 2.01203 9.51659 2.37089 9.55332 2.75733C9.5754 3.00697 9.6573 3.24761 9.79208 3.45889C9.92686 3.67017 10.1106 3.84587 10.3276 3.97112C10.5447 4.09636 10.7888 4.16747 11.0391 4.17841C11.2895 4.18936 11.5388 4.13982 11.766 4.034C12.1187 3.87385 12.5184 3.85068 12.8873 3.96899C13.2562 4.0873 13.5679 4.33863 13.7617 4.67407C13.9555 5.00951 14.0175 5.40505 13.9358 5.78371C13.854 6.16238 13.6343 6.49708 13.3193 6.72267C13.1142 6.86656 12.9468 7.05774 12.8313 7.28002C12.7157 7.50229 12.6554 7.74914 12.6554 7.99967C12.6554 8.2502 12.7157 8.49704 12.8313 8.71932C12.9468 8.94159 13.1142 9.13277 13.3193 9.27667C13.6343 9.50226 13.854 9.83695 13.9358 10.2156C14.0175 10.5943 13.9555 10.9898 13.7617 11.3253C13.5679 11.6607 13.2562 11.912 12.8873 12.0303C12.5184 12.1487 12.1187 12.1255 11.766 11.9653C11.5388 11.8595 11.2895 11.81 11.0391 11.8209C10.7888 11.8319 10.5447 11.903 10.3276 12.0282C10.1106 12.1535 9.92686 12.3292 9.79208 12.5404C9.6573 12.7517 9.5754 12.9924 9.55332 13.242C9.51659 13.6284 9.3371 13.9873 9.04992 14.2485C8.76274 14.5097 8.3885 14.6544 8.00032 14.6544C7.61214 14.6544 7.2379 14.5097 6.95072 14.2485C6.66354 13.9873 6.48406 13.6284 6.44732 13.242C6.42529 12.9923 6.34339 12.7515 6.20857 12.5402C6.07375 12.3288 5.88997 12.1531 5.67281 12.0278C5.45565 11.9026 5.2115 11.8315 4.96104 11.8206C4.71058 11.8097 4.46119 11.8594 4.23399 11.9653C3.88125 12.1255 3.48154 12.1487 3.11266 12.0303C2.74377 11.912 2.4321 11.6607 2.23831 11.3253C2.04452 10.9898 1.98247 10.5943 2.06423 10.2156C2.14599 9.83695 2.36572 9.50226 2.68066 9.27667C2.88574 9.13277 3.05314 8.94159 3.16872 8.71932C3.28429 8.49704 3.34463 8.2502 3.34463 7.99967C3.34463 7.74914 3.28429 7.50229 3.16872 7.28002C3.05314 7.05774 2.88574 6.86656 2.68066 6.72267C2.36617 6.49696 2.14682 6.1624 2.06526 5.78399C1.98369 5.40558 2.04573 5.01036 2.23931 4.67514C2.4329 4.33992 2.7442 4.08865 3.11272 3.97016C3.48123 3.85167 3.88065 3.87442 4.23332 4.034C4.46049 4.13982 4.70982 4.18936 4.96019 4.17841C5.21056 4.16747 5.45461 4.09636 5.67168 3.97112C5.88875 3.84587 6.07245 3.67017 6.20723 3.45889C6.34202 3.24761 6.42391 3.00697 6.44599 2.75733" stroke="#45556C" stroke-width="1.33333" stroke-linecap="round" stroke-linejoin="round"/>
<path d="M8 10C9.10457 10 10 9.10457 10 8C10 6.89543 9.10457 6 8 6C6.89543 6 6 6.89543 6 8C6 9.10457 6.89543 10 8 10Z" stroke="#45556C" stroke-width="1.33333" stroke-linecap="round" stroke-linejoin="round"/>
</svg>
