<svg width="16" height="16" viewBox="0 0 16 16" fill="none" xmlns="http://www.w3.org/2000/svg">
<path d="M10.1333 2C10.485 2.00501 10.8205 2.14878 11.0667 2.4L13.6 4.93333C13.8512 5.17951 13.995 5.51497 14 5.86667V12.6667C14 13.0203 13.8595 13.3594 13.6095 13.6095C13.3594 13.8595 13.0203 14 12.6667 14H3.33333C2.97971 14 2.64057 13.8595 2.39052 13.6095C2.14048 13.3594 2 13.0203 2 12.6667V3.33333C2 2.97971 2.14048 2.64057 2.39052 2.39052C2.64057 2.14048 2.97971 2 3.33333 2H10.1333Z" stroke="white" stroke-width="1.33333" stroke-linecap="round" stroke-linejoin="round"/>
<path d="M11.3334 14V9.33335C11.3334 9.15654 11.2631 8.98697 11.1381 8.86195C11.0131 8.73693 10.8435 8.66669 10.6667 8.66669H5.33335C5.15654 8.66669 4.98697 8.73693 4.86195 8.86195C4.73693 8.98697 4.66669 9.15654 4.66669 9.33335V14" stroke="white" stroke-width="1.33333" stroke-linecap="round" stroke-linejoin="round"/>
<path d="M4.66669 2V4.66667C4.66669 4.84348 4.73693 5.01305 4.86195 5.13807C4.98697 5.2631 5.15654 5.33333 5.33335 5.33333H10" stroke="white" stroke-width="1.33333" stroke-linecap="round" stroke-linejoin="round"/>
</svg>
