<svg preserveAspectRatio="none" width="100%" height="100%" overflow="visible" style="display: block;" viewBox="0 0 16 16" fill="none" xmlns="http://www.w3.org/2000/svg">
<g id="Icon">
<path id="Vector" d="M13.3333 6.66667C13.3333 9.99533 9.64067 13.462 8.40067 14.5327C8.28515 14.6195 8.14453 14.6665 8 14.6665C7.85547 14.6665 7.71485 14.6195 7.59933 14.5327C6.35933 13.462 2.66667 9.99533 2.66667 6.66667C2.66667 5.25218 3.22857 3.89562 4.22876 2.89543C5.22896 1.89524 6.58551 1.33333 8 1.33333C9.41449 1.33333 10.771 1.89524 11.7712 2.89543C12.7714 3.89562 13.3333 5.25218 13.3333 6.66667Z" stroke="var(--stroke-0, #4F39F6)" stroke-width="1.33333" stroke-linecap="round" stroke-linejoin="round"/>
<path id="Vector_2" d="M8 8.66667C9.10457 8.66667 10 7.77124 10 6.66667C10 5.5621 9.10457 4.66667 8 4.66667C6.89543 4.66667 6 5.5621 6 6.66667C6 7.77124 6.89543 8.66667 8 8.66667Z" stroke="var(--stroke-0, #4F39F6)" stroke-width="1.33333" stroke-linecap="round" stroke-linejoin="round"/>
</g>
</svg>
