<svg preserveAspectRatio="none" width="100%" height="100%" overflow="visible" style="display: block;" viewBox="0 0 16 16" fill="none" xmlns="http://www.w3.org/2000/svg">
<g id="Icon">
<path id="Vector" d="M9.33333 2.73334L8 4" stroke="var(--stroke-0, #90A1B9)" stroke-width="1.33333" stroke-linecap="round" stroke-linejoin="round"/>
<path id="Vector_2" d="M3.39997 5.33334L1.46663 4.80001" stroke="var(--stroke-0, #90A1B9)" stroke-width="1.33333" stroke-linecap="round" stroke-linejoin="round"/>
<path id="Vector_3" d="M3.99998 8L2.73332 9.33333" stroke="var(--stroke-0, #90A1B9)" stroke-width="1.33333" stroke-linecap="round" stroke-linejoin="round"/>
<path id="Vector_4" d="M4.79997 1.46667L5.3333 3.40001" stroke="var(--stroke-0, #90A1B9)" stroke-width="1.33333" stroke-linecap="round" stroke-linejoin="round"/>
<path id="Vector_5" d="M6.02469 6.46C5.99883 6.3991 5.99177 6.33187 6.00439 6.26693C6.01701 6.20198 6.04875 6.14229 6.09553 6.09551C6.14231 6.04873 6.202 6.01699 6.26695 6.00437C6.33189 5.99175 6.39912 5.99881 6.46002 6.02467L13.7934 9.02467C13.8586 9.05144 13.9137 9.09823 13.9507 9.15831C13.9877 9.21838 14.0046 9.28864 13.9992 9.35897C13.9937 9.4293 13.966 9.49608 13.9202 9.5497C13.8743 9.60331 13.8126 9.641 13.744 9.65733L10.8447 10.3513C10.725 10.3799 10.6156 10.4411 10.5285 10.528C10.4414 10.615 10.3801 10.7243 10.3514 10.844L9.65802 13.744C9.64186 13.8129 9.60422 13.8748 9.55053 13.9208C9.49685 13.9669 9.4299 13.9947 9.35939 14.0002C9.28887 14.0057 9.21843 13.9886 9.15826 13.9514C9.09809 13.9142 9.05131 13.8589 9.02469 13.7933L6.02469 6.46Z" stroke="var(--stroke-0, #90A1B9)" stroke-width="1.33333" stroke-linecap="round" stroke-linejoin="round"/>
</g>
</svg>
