<svg preserveAspectRatio="none" width="100%" height="100%" overflow="visible" style="display: block;" viewBox="0 0 48 48" fill="none" xmlns="http://www.w3.org/2000/svg">
<g id="Icon">
<path id="Vector" d="M38 6H10C7.79086 6 6 7.79086 6 10V38C6 40.2091 7.79086 42 10 42H38C40.2091 42 42 40.2091 42 38V10C42 7.79086 40.2091 6 38 6Z" stroke="var(--stroke-0, #E2E8F0)" stroke-width="4" stroke-linecap="round" stroke-linejoin="round"/>
<path id="Vector_2" d="M18 22C20.2091 22 22 20.2091 22 18C22 15.7909 20.2091 14 18 14C15.7909 14 14 15.7909 14 18C14 20.2091 15.7909 22 18 22Z" stroke="var(--stroke-0, #E2E8F0)" stroke-width="4" stroke-linecap="round" stroke-linejoin="round"/>
<path id="Vector_3" d="M42 30L35.828 23.828C35.0779 23.0781 34.0607 22.6569 33 22.6569C31.9393 22.6569 30.9221 23.0781 30.172 23.828L12 42" stroke="var(--stroke-0, #E2E8F0)" stroke-width="4" stroke-linecap="round" stroke-linejoin="round"/>
</g>
</svg>
